<svg width="89" height="89" viewBox="0 0 89 89" fill="none" xmlns="http://www.w3.org/2000/svg">
<path d="M22.25 11.125H63.0417L77.5116 31.7915L42.6458 81.5833L7.78009 31.7915L22.25 11.125ZM37.6841 14.8333L31.3873 29.6667H53.9043L47.6076 14.8333H37.6841V14.8333ZM30.8793 33.375L42.6458 69.5832L54.4087 33.375H30.883H30.8793ZM13.795 29.6667H27.3601L33.6568 14.8333H24.1783L13.795 29.6667ZM13.4168 33.375L38.7261 69.5201L26.9818 33.375H13.4168V33.375ZM71.4967 29.6667L61.1133 14.8333H51.6348L57.9316 29.6667H71.4967ZM71.8749 33.375H58.3098L46.5655 69.5201L71.8749 33.375Z" fill="white"/>
</svg>
